<svg t="1640588600628" class="icon" viewBox="0 0 1024 1024" version="1.1" xmlns="http://www.w3.org/2000/svg" p-id="9221" width="200" height="200"><path d="M828.6 235.9c84.2 84.2 127.6 189.8 130.7 317-0.4 73-16.6 140.1-47.5 201-31.3 61.3-73.4 112.4-127.2 154-6.3 6.3-13.9 9.4-22.8 9.4-9 0-16.1-3.1-22.4-9.4-6.3-6.3-9.4-13.4-9.4-22.4 0.4-10.3 4.5-18.8 12.1-25.5 34.5-25.5 63.6-56.4 87.3-91.8L791 745.4c-7.2-4-11.2-9.4-13-16.6-1.8-7.2-0.9-13.9 3.1-21 3.6-7.2 9.4-11.2 16.6-13 7.2-1.8 14.3-0.9 21.5 2.7l38.5 21.9c21-42.5 33.6-89.1 37.6-139.3h-44.8c-8.1 0-14.8-2.7-20.2-8.1-5.4-5.4-8.1-12.1-8.1-20.1 0-8.1 2.7-14.8 8.1-20.2 5.4-5.4 12.1-8.1 20.2-8.1h44.8c-4-50.1-16.6-96.7-37.6-140.1l-38.5 21.9c-7.2 4-14.3 4.9-21.5 3.1-7.2-2.2-13-6.3-16.6-13-3.6-6.7-4.9-13.9-3.1-21 1.8-7.2 6.3-13 13-17l38.5-21.9c-28.2-40.7-62.2-74.8-102.5-102.5l-22.8 38.5c-4 7.2-9.4 11.2-16.6 13-7.2 1.8-13.9 0.9-21-3.1-7.2-3.6-11.2-9.4-13-16.6-1.8-7.2-0.9-14.3 2.7-21.5L679 205c-43-21-90-33.6-140.1-37.6v44.8c0 8.1-2.7 14.8-8.1 20.2-5.4 5.4-12.1 8.1-20.1 8.1-8.1 0-14.8-2.7-20.1-8.1-5.4-5.4-8.1-12.1-8.1-20.2v-44.8c-50.1 4-96.7 16.6-140.1 37.6l21.9 38.5c4 7.2 4.9 14.3 3.1 21.5-2.2 7.2-6.3 13-13 16.6-6.7 3.6-13.9 4.9-21 3.1-7.2-1.8-13-6.3-17-13l-21.9-38.5c-39.9 28.7-73.9 62.7-101.2 103.4l38.5 21.9c7.2 4 11.2 9.9 13 17 1.8 7.2 0.9 14.3-3.1 21-3.6 6.7-9.4 11.2-16.6 13-7.2 2.2-14.3 0.9-21.5-3.1L165 384.5c-21 43-33.6 90-37.6 140.1h44.8c8.1 0 14.8 2.7 20.1 8.1 5.4 5.4 8.1 12.1 8.1 20.2s-2.7 14.8-8.1 20.1c-5.4 5.4-12.1 8.1-20.1 8.1h-44.8c4 50.1 16.6 96.7 37.6 140.1l38.5-22.8c7.2-3.6 14.3-4.5 21.5-2.7 7.2 1.8 13 6.3 16.6 13 3.6 7.2 4.9 13.9 3.1 21-1.8 7.2-6.3 12.5-13 16.6l-38.5 22.8c23.3 34.5 51.5 64.5 84.6 90 9.9 5.8 15.2 14.8 15.7 27.3 0 9-3.1 16.1-9.4 22.4-6.3 6.3-13.4 9.4-22.4 9.4-7.6 0-13.9-2.2-19.3-7.2v0.9c-55.5-42.1-99-93.6-130.7-155.4-31.3-61.8-47.5-129.8-47.9-203.7 2.7-127.2 46.6-232.8 130.7-317 84.2-84.2 189.8-128.1 317-130.7 127.2 2.7 232.9 46.6 317.1 130.8zM670.1 404.7c7.2 0.9 13.4 4.5 18.4 10.3 4.9 6.3 6.7 13 5.8 20.6-1.3 7.6-4.5 13.9-10.3 18.4l-110.1 86.4c0.4 4 0.9 8.1 0.9 12.1-0.4 17.5-6.7 32.2-18.4 44.3-11.6 12.1-26.4 17.9-44.8 17.9-17.9 0-33.1-5.8-44.8-17.9-11.6-12.1-17.5-26.9-17.5-44.8s5.8-32.7 17.5-44.8c11.6-12.1 26.4-17.9 44.8-17.9 9.8 0 19.2 2.2 28.2 6.3L649.9 410c6.3-4.4 13-6.2 20.2-5.3z m0 0" p-id="9222"></path></svg>