<svg t="1640589853379" class="icon" viewBox="0 0 1024 1024" version="1.1" xmlns="http://www.w3.org/2000/svg" p-id="10814" width="200" height="200"><path d="M513.335 962c248.368 0 448.665-200.296 448.665-448.665 0-165.579-88.131-309.792-218.991-387.24-42.729-24.036-66.765 26.707-29.377 50.742 114.837 66.765 192.284 192.284 192.284 336.499 0 216.321-176.261 392.582-392.582 392.582-216.321 0-392.582-176.261-392.582-392.582 0-144.214 77.449-269.733 192.284-336.499 34.718-24.036 13.353-74.777-29.377-50.742-133.531 77.449-221.662 221.662-221.662 387.24 0 248.368 202.968 448.665 451.335 448.665zM513.335 62c18.694 0 37.388 16.024 37.388 34.717v504.748c0 18.694-18.695 34.717-37.388 34.717-21.366 0-37.388-16.024-37.388-34.718v-504.748c0-18.694 16.024-34.717 37.388-34.717z" p-id="10815"></path></svg>